<?xml version="1.0" standalone="no"?>
<!DOCTYPE svg PUBLIC "-//W3C//DTD SVG 20010904//EN"
 "http://www.w3.org/TR/2001/REC-SVG-20010904/DTD/svg10.dtd">
<svg version="1.0" xmlns="http://www.w3.org/2000/svg"
 width="648.000000pt" height="648.000000pt" viewBox="0 0 648.000000 648.000000"
 preserveAspectRatio="xMidYMid meet">
<metadata>
Created by potrace 1.14, written by Peter Selinger 2001-2017
</metadata>
<g transform="translate(0.000000,648.000000) scale(0.100000,-0.100000)"
fill="#000000" stroke="none">
<path d="M3059 5636 c-2 -2 -38 -6 -79 -10 -41 -3 -86 -8 -100 -11 -14 -3 -38
-7 -55 -10 -42 -6 -80 -14 -155 -31 -36 -9 -72 -17 -81 -19 -79 -17 -302 -104
-441 -171 -135 -67 -401 -239 -443 -288 -5 -6 -23 -22 -40 -34 -72 -56 -223
-212 -300 -311 -28 -35 -58 -72 -67 -82 -10 -11 -18 -23 -18 -28 0 -5 -4 -11
-8 -13 -5 -1 -36 -48 -70 -103 -34 -55 -67 -107 -74 -116 -6 -10 -11 -21 -11
-25 1 -5 -7 -20 -16 -34 -50 -74 -144 -311 -188 -470 -20 -76 -45 -193 -57
-269 -13 -80 -17 -112 -22 -171 -6 -74 -6 -322 1 -390 7 -82 16 -155 21 -180
3 -14 8 -41 10 -60 14 -105 89 -364 138 -475 8 -16 26 -59 42 -95 15 -36 32
-71 38 -79 6 -7 11 -18 12 -25 8 -50 248 -399 339 -492 11 -12 36 -39 56 -60
140 -151 384 -341 559 -435 25 -13 47 -27 48 -31 2 -5 8 -8 12 -8 5 0 49 -19
97 -41 114 -54 114 -54 212 -89 82 -30 274 -83 339 -94 214 -37 256 -41 462
-41 161 0 281 7 346 19 11 2 41 7 68 10 27 4 53 9 56 11 4 3 22 7 41 9 44 6
215 53 237 65 9 5 22 9 27 10 12 0 87 27 130 46 17 7 50 21 74 31 25 10 83 38
130 62 408 212 787 577 987 952 16 30 32 57 37 58 4 2 7 7 7 12 0 4 18 46 39
92 45 94 99 233 126 323 21 68 19 60 28 100 15 63 19 82 33 155 14 72 17 93
30 205 14 119 7 475 -11 565 -3 14 -7 41 -10 60 -2 19 -12 67 -20 105 -9 39
-18 83 -21 100 -9 46 -83 261 -121 350 -220 515 -631 951 -1133 1201 -136 68
-351 152 -407 159 -12 2 -27 6 -33 10 -5 3 -20 8 -33 11 -12 2 -33 6 -47 10
-85 20 -166 35 -215 39 -22 2 -40 5 -40 5 0 9 -458 24 -466 16z m401 -490 c14
-2 50 -8 80 -11 30 -4 58 -9 61 -11 4 -2 24 -6 45 -10 22 -3 47 -10 57 -15 9
-5 17 -6 18 -2 0 8 124 -234 129 -252 2 -5 14 -27 26 -47 13 -21 24 -40 24
-44 0 -10 33 -79 41 -84 6 -4 39 -74 43 -90 1 -3 8 -16 16 -30 8 -14 26 -50
41 -81 15 -31 31 -59 37 -63 5 -3 31 -8 58 -11 26 -4 51 -8 54 -10 4 -2 33 -9
66 -14 32 -6 86 -15 119 -21 33 -6 75 -13 94 -16 18 -3 43 -8 55 -10 11 -3 35
-7 51 -9 17 -3 41 -7 55 -10 14 -2 36 -7 50 -10 14 -2 39 -7 55 -10 133 -23
126 -16 214 -200 61 -128 84 -187 129 -335 28 -90 67 -336 64 -397 -1 -12 -21
-41 -44 -64 -295 -288 -507 -502 -503 -509 2 -4 7 -32 10 -61 3 -30 7 -61 10
-69 2 -8 6 -37 10 -65 9 -77 13 -106 20 -155 4 -25 9 -58 10 -75 2 -16 6 -48
9 -70 4 -22 8 -53 10 -70 2 -16 9 -70 15 -119 14 -102 23 -83 -110 -216 -79
-78 -142 -134 -179 -160 -13 -8 -28 -19 -34 -25 -64 -56 -303 -191 -408 -230
l-48 -18 -57 28 c-32 15 -65 34 -75 42 -9 8 -22 16 -30 17 -13 2 -58 24 -213
106 -49 26 -141 73 -202 105 l-112 57 -38 -20 c-21 -11 -53 -26 -70 -34 -18
-7 -33 -16 -33 -20 0 -5 -6 -8 -13 -8 -8 0 -45 -16 -83 -34 -171 -86 -466
-226 -475 -226 -17 0 -239 114 -304 155 -160 102 -339 258 -448 390 -21 26
-27 59 -17 85 1 3 2 8 1 13 -1 4 3 27 9 52 9 42 16 83 25 145 1 14 5 39 8 55
4 17 13 73 21 125 9 52 18 106 20 120 14 72 17 89 22 135 3 28 7 53 8 56 1 6
-157 174 -486 516 -52 54 -56 62 -53 98 5 59 14 136 20 165 3 14 7 34 9 45 12
60 37 155 50 193 8 23 16 44 16 47 2 18 77 200 98 240 9 16 15 33 14 38 -1 4
2 7 8 7 5 0 10 4 10 9 0 12 70 130 81 137 14 8 48 14 163 29 45 6 92 13 126
20 14 3 43 7 65 10 38 4 78 10 135 20 14 2 43 7 65 10 23 3 50 7 60 9 24 4
126 20 138 20 9 1 167 291 167 307 0 5 4 9 8 9 4 0 16 20 26 45 11 25 24 45
29 45 6 0 7 3 4 7 -4 3 -3 11 2 17 4 6 27 47 51 91 102 191 94 182 158 190 15
2 27 4 27 5 0 4 54 13 165 26 30 3 57 7 58 9 5 5 362 -3 392 -9z"/>
<path d="M3385 4324 c3 -55 8 -106 10 -114 2 -8 7 -51 10 -95 4 -43 9 -83 11
-87 3 -4 1 -8 -4 -8 -5 0 -33 28 -63 62 -30 34 -70 79 -89 99 -19 20 -53 58
-75 83 -22 25 -61 68 -87 96 -51 55 -38 53 -203 35 -27 -3 -69 -7 -93 -9 -23
-2 -44 -5 -46 -7 -2 -2 -7 -29 -10 -60 -4 -31 -8 -65 -10 -75 -2 -11 -7 -50
-11 -89 -4 -38 -8 -83 -11 -100 -2 -16 -6 -64 -9 -105 -3 -41 -7 -102 -10
-135 -2 -33 -7 -121 -10 -195 -4 -74 -7 -139 -8 -145 -2 -10 95 -11 276 -4 85
4 88 5 84 27 -2 12 -1 22 3 22 4 0 5 15 1 33 -4 17 -4 43 -1 57 3 14 3 40 -1
58 -4 17 -4 32 0 32 3 0 5 70 5 155 -1 85 0 155 1 155 2 0 29 -35 61 -77 32
-43 62 -82 67 -88 4 -5 68 -89 140 -185 l133 -175 107 0 c59 0 107 -3 107 -6
0 -4 15 -3 34 1 19 4 39 4 46 0 6 -4 22 -5 36 -2 18 3 23 9 19 26 -2 11 -7 57
-10 101 -3 44 -8 94 -10 110 -2 17 -7 57 -10 90 -7 59 -8 73 -19 170 -6 48
-14 99 -23 140 -2 11 -6 34 -8 50 -5 32 -11 64 -21 108 -3 16 -7 38 -8 50 -5
42 -18 67 -34 68 -9 1 -30 3 -47 4 -16 2 -70 7 -120 10 -49 4 -93 9 -98 12 -5
3 -6 -39 -2 -93z"/>
<path d="M4158 3215 c-2 -2 -78 -6 -168 -9 -91 -3 -244 -9 -340 -12 -96 -3
-197 -7 -225 -8 l-49 -1 -4 -430 c-2 -236 -4 -488 -5 -560 -1 -89 1 -129 9
-128 6 1 49 5 95 9 46 3 95 7 109 9 14 2 43 4 65 4 56 2 62 8 70 71 4 30 9 69
11 85 11 91 15 122 19 140 2 11 4 27 4 36 1 11 13 18 39 22 52 8 166 29 231
42 31 6 31 5 37 61 2 27 7 60 9 74 2 14 7 46 10 73 l6 47 -37 -6 c-20 -3 -45
-7 -55 -9 -30 -6 -152 -19 -184 -19 -30 -1 -30 -1 -27 49 6 88 8 104 12 109 6
5 83 15 158 21 28 2 59 6 69 9 16 4 138 18 171 19 7 0 12 14 13 31 0 17 2 84
4 149 2 64 1 117 -3 118 -4 0 -15 2 -24 4 -9 2 -18 1 -20 0z"/>
<path d="M3126 3183 c-2 -3 -170 -6 -373 -8 -202 -2 -389 -4 -415 -4 l-48 -1
5 -42 c2 -24 6 -74 10 -113 3 -38 8 -83 10 -100 4 -32 16 -150 21 -200 1 -16
3 -30 4 -30 1 0 3 -16 6 -35 5 -41 12 -80 38 -220 5 -27 14 -85 22 -140 2 -19
6 -48 9 -65 2 -16 7 -52 11 -80 3 -27 8 -53 10 -56 2 -3 51 -5 109 -5 58 1
105 -3 105 -7 0 -5 4 -6 8 -3 5 3 32 6 61 7 l52 3 -5 30 c-3 17 -7 45 -11 61
-3 17 -12 66 -20 110 -8 44 -17 90 -19 102 -5 22 -3 22 87 17 51 -2 128 -6
172 -7 l80 -2 -1 30 c-8 156 -12 214 -17 222 -3 5 -45 10 -94 12 -48 2 -113 5
-143 6 -30 1 -71 3 -90 4 -30 1 -36 5 -37 24 0 12 -3 50 -6 84 l-6 63 262 -3
262 -2 -2 115 c-2 63 -3 140 -4 171 -1 52 -3 57 -25 62 -13 2 -26 2 -28 0z"/>
</g>
</svg>
