<svg width="100" height="68" viewBox="0 0 100 68" fill="none" xmlns="http://www.w3.org/2000/svg">
<path d="M97.994 24.0469C97.9968 24.0296 97.9933 24.0116 97.9843 23.9971L97.9747 23.9674H97.974C96.8871 20.4746 95.2353 17.1841 93.0835 14.2258C92.5586 13.4931 91.9944 12.7805 91.4006 12.0975C88.237 8.372 84.3003 5.37907 79.8641 3.32821C75.4279 1.27664 70.5982 0.21524 65.7105 0.217892V0.21582H2.48054C1.38738 0.21582 0.500747 1.10249 0.500747 2.19561C0.500747 2.72113 0.709297 3.22454 1.08081 3.59607C1.45164 3.96691 1.95574 4.17544 2.48057 4.17544H56.7724L52.7962 12.0988L39.407 12.0995L33.4144 24.0393L38.4133 33.9985L33.4178 43.9549L33.4219 43.9632L33.4136 43.9584L33.6311 44.6199L33.636 44.6206H33.6367C34.7409 47.9574 36.3568 51.1029 38.4271 53.9438C38.9223 54.6171 39.4271 55.2704 39.9712 55.8939H39.9719C42.7225 59.134 46.0605 61.8237 49.8109 63.8223H2.48086C1.38771 63.8223 0.501068 64.7083 0.501068 65.8021C0.501068 66.3269 0.709619 66.831 1.08113 67.2018C1.45197 67.5734 1.95606 67.7819 2.4809 67.7819H65.6419C65.6654 67.7819 65.6882 67.784 65.7116 67.784C70.6022 67.7874 75.434 66.7253 79.8723 64.6717C84.3104 62.6187 88.2481 59.623 91.4115 55.8941C91.9957 55.2208 92.5502 54.5178 93.0647 53.7955H93.0654C95.2345 50.8185 96.8966 47.5038 97.9856 43.9847L98.0056 43.955V43.9454H98.0049C98.9986 40.7226 99.5021 37.3685 99.5 33.9959C99.5048 30.6225 98.9972 27.2677 97.9952 24.047L97.994 24.0469ZM89.688 16.285C91.3039 18.4582 92.6126 20.8434 93.5787 23.3737C93.5863 23.3813 93.5897 23.3923 93.5883 23.4034C93.6381 23.5221 93.6774 23.6313 93.7168 23.75L89.5686 32.0167L78.6301 32.016L74.6214 24.0387L78.6301 16.0571H89.5098C89.5748 16.129 89.6342 16.2049 89.688 16.285ZM71.1842 61.8986H60.2381L56.2329 53.9184L60.2381 45.9382L71.1842 45.9389L75.1894 53.9191L71.1842 61.8986ZM71.1842 6.10056L75.1894 14.0807L71.1842 22.0609L60.2381 22.0602L56.2329 14.0795L60.2381 6.10004L71.1842 6.10056ZM60.2381 41.9787L56.2329 33.9992L60.2381 26.0185L71.1842 26.0192L75.1894 33.9994L71.1842 41.9795L60.2381 41.9787ZM78.6253 12.097L75.4765 5.82124C79.354 7.17266 82.9118 9.30917 85.9266 12.097H78.6253ZM41.8509 16.0587H52.797L56.8015 24.0387L52.7984 32.0153H41.8488L37.8456 24.0387L41.8509 16.0587ZM41.8233 51.8838C40.09 49.5642 38.7054 47.003 37.7152 44.2807L37.6952 44.251V44.2414L41.8517 35.9782H52.7942L56.8015 43.9562L52.7928 51.9335H41.8634C41.853 51.9135 41.8337 51.9038 41.8233 51.8838ZM52.7948 55.8932L55.9555 62.1925H55.9562C52.0504 60.8459 48.4679 58.7011 45.4369 55.8932H52.7948ZM75.4743 62.1787L78.6281 55.8932H85.9273C82.9137 58.6866 79.3545 60.8258 75.475 62.1787H75.4743ZM93.6988 44.2919C92.7245 46.9429 91.3745 49.4399 89.6894 51.7063C89.6362 51.7871 89.5768 51.8631 89.5112 51.9342H78.6315L74.6235 43.9576L78.6315 35.9755H89.5707L93.7286 44.2318C93.7189 44.2518 93.7189 44.2718 93.6988 44.2919ZM95.2132 38.3917L93.0089 33.9964L95.214 29.6003C95.649 32.5144 95.649 35.4769 95.214 38.3912L95.2132 38.3917Z" fill="#8A9FFF"/>
<path d="M2.47979 16.8818H26.2394C27.3333 16.8818 28.2192 17.9757 28.2192 18.8616C28.2192 19.9555 27.3325 20.8414 26.2394 20.8414H2.47979C1.38595 20.8414 0.5 19.7476 0.5 18.8616C0.5 17.7678 1.38667 16.8818 2.47979 16.8818Z" fill="#8A9FFF"/>
<path d="M15.3498 47.5714H27.9717C29.0656 47.5714 29.9515 48.6652 29.9515 49.5511C29.9515 50.645 29.0648 51.5309 27.9717 51.5309H15.3498C14.2559 51.5309 13.37 50.4371 13.37 49.5511C13.37 48.4573 14.2566 47.5714 15.3498 47.5714Z" fill="#8A9FFF"/>
<path d="M2.47979 47.5714C3.57364 47.5714 4.45958 48.6652 4.45958 49.5511C4.45958 50.645 3.57291 51.5309 2.47979 51.5309C1.38595 51.5309 0.5 50.4371 0.5 49.5511C0.5 48.4573 1.38667 47.5714 2.47979 47.5714Z" fill="#8A9FFF"/>
<path d="M11.7611 32.018H27.9719C29.0657 32.018 29.9517 33.1118 29.9517 33.9978C29.9517 35.0916 29.065 35.9776 27.9719 35.9776H11.7611C10.6672 35.9776 9.78128 34.8837 9.78128 33.9978C9.78128 32.9039 10.668 32.018 11.7611 32.018Z" fill="#8A9FFF"/>
</svg>
