<svg width="72" height="48" viewBox="0 0 72 48" fill="none" xmlns="http://www.w3.org/2000/svg">
<g clip-path="url(#clip0_693_23641)">
<path fill-rule="evenodd" clip-rule="evenodd" d="M24 0H72V48H0V24H8V16H16V24H24V16H16V8H24V0ZM48 8H40V16H48V8ZM64 16H56V24H64V16ZM16 32H24V40H16V32ZM56 32H48V40H56V32Z" fill="#152AC5"/>
<path d="M16 0H8V8H0V16H8V8H16V0Z" fill="#152AC5"/>
<path d="M48 8H40V16H48V8Z" fill="white"/>
<path d="M64 16H56V24H64V16Z" fill="white"/>
<path d="M24 32H16V40H24V32Z" fill="white"/>
<path d="M56 32H48V40H56V32Z" fill="white"/>
<path d="M8 0H0V8H8V0Z" fill="#D91821"/>
<path d="M24 0H16V8H24V0Z" fill="#D91821"/>
<path d="M16 8H8V16H16V8Z" fill="#D91821"/>
<path d="M8 16H0V24H8V16Z" fill="#D91821"/>
<path d="M24 16H16V24H24V16Z" fill="#D91821"/>
</g>
<defs>
<clipPath id="clip0_693_23641">
<rect width="72" height="48" fill="white"/>
</clipPath>
</defs>
</svg>
