<svg width="72" height="49" viewBox="0 0 72 49" fill="none" xmlns="http://www.w3.org/2000/svg">
<g clip-path="url(#clip0_693_23675)">
<path d="M24 8.5H16V16.5H24V8.5Z" fill="white"/>
<path d="M40 8.5H32V16.5H40V8.5Z" fill="white"/>
<path d="M56 8.5H48V16.5H56V8.5Z" fill="white"/>
<path d="M16 16.5H8V24.5H16V16.5Z" fill="white"/>
<path d="M32 16.5H24V24.5H32V16.5Z" fill="white"/>
<path d="M48 16.5H40V24.5H48V16.5Z" fill="white"/>
<path d="M64 16.5H56V24.5H64V16.5Z" fill="white"/>
<path d="M56 32.5H16V40.5H56V32.5Z" fill="white"/>
<path fill-rule="evenodd" clip-rule="evenodd" d="M72 0.5H0V48.5H72V0.5ZM16 8.5H24V16.5H16V8.5ZM16 16.5V24.5H8V16.5H16ZM32 16.5V24.5H24V16.5H32ZM40 16.5H32V8.5H40V16.5ZM48 16.5V24.5H40V16.5H48ZM56 16.5H48V8.5H56V16.5ZM56 16.5H64V24.5H56V16.5ZM16 32.5H56V40.5H16V32.5Z" fill="#008C2F"/>
</g>
<defs>
<clipPath id="clip0_693_23675">
<rect width="72" height="48" fill="white" transform="translate(0 0.5)"/>
</clipPath>
</defs>
</svg>
