<svg width="72" height="49" viewBox="0 0 72 49" fill="none" xmlns="http://www.w3.org/2000/svg">
<g clip-path="url(#clip0_693_23730)">
<path d="M32 8.5H24V16.5H32V8.5Z" fill="white"/>
<path d="M24 16.5H16V32.5H24V16.5Z" fill="white"/>
<path d="M40 16.5H32V24.5H40V16.5Z" fill="white"/>
<path d="M48 24.5H40V32.5H48V24.5Z" fill="white"/>
<path d="M40 32.5H24V40.5H40V32.5Z" fill="white"/>
<path d="M32 16.5V24.5H40V32.5H24V16.5H32Z" fill="#D91821"/>
<path fill-rule="evenodd" clip-rule="evenodd" d="M72 0.5H0V48.5H72V0.5ZM32 8.5H24V16.5H16V32.5H24V40.5H40V32.5H48V24.5H40V16.5H32V8.5Z" fill="#D91821"/>
</g>
<defs>
<clipPath id="clip0_693_23730">
<rect width="72" height="48" fill="white" transform="translate(0 0.5)"/>
</clipPath>
</defs>
</svg>
